HIERARCHY
ROOT Hips
{
	OFFSET 0.000000 0.000000 0.000000
	CHANNELS 6 Xposition Yposition Zposition Zrotation Yrotation Xrotation 
	JOINT LHipJoint
	{
		OFFSET 0.000000 0.000000 0.000000
		CHANNELS 3 Zrotation Yrotation Xrotation
		JOINT LeftUpLeg
		{
			OFFSET 1.363060 -1.794630 0.839290
			CHANNELS 3 Zrotation Yrotation Xrotation
			JOINT LeftLeg
			{
				OFFSET 2.448110 -6.726130 0.000000
				CHANNELS 3 Zrotation Yrotation Xrotation
				JOINT LeftFoot
				{
					OFFSET 2.562200 -7.039590 0.000000
					CHANNELS 3 Zrotation Yrotation Xrotation
					JOINT LeftToeBase
					{
						OFFSET 0.157640 -0.433110 2.322550
						CHANNELS 3 Zrotation Yrotation Xrotation
						End Site
						{
							OFFSET 0.000000 0.000000 0.000000
						}
					}
				}
			}
		}
	}
	JOINT RHipJoint
	{
		OFFSET 0.000000 0.000000 0.000000
		CHANNELS 3 Zrotation Yrotation Xrotation
		JOINT RightUpLeg
		{
			OFFSET -1.305520 -1.794630 0.839290
			CHANNELS 3 Zrotation Yrotation Xrotation
			JOINT RightLeg
			{
				OFFSET -2.542530 -6.985550 0.000000
				CHANNELS 3 Zrotation Yrotation Xrotation
				JOINT RightFoot
				{
					OFFSET -2.568260 -7.056230 0.000000
					CHANNELS 3 Zrotation Yrotation Xrotation
					JOINT RightToeBase
					{
						OFFSET -0.164730 -0.452590 2.363150
						CHANNELS 3 Zrotation Yrotation Xrotation
						End Site
						{
							OFFSET 0.000000 0.000000 0.000000
						}
					}
				}
			}
		}
	}
	JOINT LowerBack
	{
		OFFSET 0.000000 0.000000 0.000000
		CHANNELS 3 Zrotation Yrotation Xrotation
		JOINT Spine
		{
			OFFSET 0.028270 2.035590 -0.193380
			CHANNELS 3 Zrotation Yrotation Xrotation
			JOINT Spine1
			{
				OFFSET 0.056720 2.048850 -0.042750
				CHANNELS 3 Zrotation Yrotation Xrotation
				JOINT Neck
				{
					OFFSET 0.000000 0.000000 0.000000
					CHANNELS 3 Zrotation Yrotation Xrotation
					JOINT Neck1
					{
						OFFSET -0.054170 1.746240 0.172020
						CHANNELS 3 Zrotation Yrotation Xrotation
						JOINT Head
						{
							OFFSET 0.104070 1.761360 -0.123970
							CHANNELS 3 Zrotation Yrotation Xrotation
							End Site
							{
								OFFSET 0.000000 0.000000 0.000000
							}
						}
					}
				}
				JOINT LeftShoulder
				{
					OFFSET 0.000000 0.000000 0.000000
					CHANNELS 3 Zrotation Yrotation Xrotation
					JOINT LeftArm
					{
						OFFSET 3.362410 1.200890 -0.311210
						CHANNELS 3 Zrotation Yrotation Xrotation
						JOINT LeftForeArm
						{
							OFFSET 4.983000 -0.000000 -0.000000
							CHANNELS 3 Zrotation Yrotation Xrotation
							JOINT LeftHand
							{
								OFFSET 3.483560 -0.000000 -0.000000
								CHANNELS 3 Zrotation Yrotation Xrotation
								JOINT LeftFingerBase
								{
									OFFSET 0.000000 0.000000 0.000000
									CHANNELS 3 Zrotation Yrotation Xrotation
									JOINT LeftHandIndex1
									{
										OFFSET 0.715260 -0.000000 -0.000000
										CHANNELS 3 Zrotation Yrotation Xrotation
										End Site
										{
											OFFSET 0.000000 0.000000 0.000000
										}
									}
								}
								JOINT LThumb
								{
									OFFSET 0.000000 0.000000 0.000000
									CHANNELS 3 Zrotation Yrotation Xrotation
									End Site
									{
										OFFSET 0.000000 0.000000 0.000000
									}
								}
							}
						}
					}
				}
				JOINT RightShoulder
				{
					OFFSET 0.000000 0.000000 0.000000
					CHANNELS 3 Zrotation Yrotation Xrotation
					JOINT RightArm
					{
						OFFSET -3.136600 1.374050 -0.404650
						CHANNELS 3 Zrotation Yrotation Xrotation
						JOINT RightForeArm
						{
							OFFSET -5.241900 -0.000000 -0.000000
							CHANNELS 3 Zrotation Yrotation Xrotation
							JOINT RightHand
							{
								OFFSET -3.444170 -0.000000 -0.000000
								CHANNELS 3 Zrotation Yrotation Xrotation
								JOINT RightFingerBase
								{
									OFFSET 0.000000 0.000000 0.000000
									CHANNELS 3 Zrotation Yrotation Xrotation
									JOINT RightHandIndex1
									{
										OFFSET -0.622530 -0.000000 -0.000000
										CHANNELS 3 Zrotation Yrotation Xrotation
										End Site
										{
											OFFSET 0.000000 0.000000 0.000000
										}
									}
								}
								JOINT RThumb
								{
									OFFSET 0.000000 0.000000 0.000000
									CHANNELS 3 Zrotation Yrotation Xrotation
									End Site
									{
										OFFSET 0.000000 0.000000 0.000000
									}
								}
							}
						}
					}
				}
			}
		}
	}
}
MOTION
Frames: 11
Frame Time: 0.008333
4.624319 17.339555 1.035397 8.940715 -53.468258 7.279380 -9.883856 0.225154 3.909676 -8.094825 -12.603237 -18.127629 -2.613534 -1.173153 -2.661094 -0.303942 0.820091 10.019413 0.838700 0.000000 -41.253700 10.581620 -0.790500 -3.479365 0.635916 -22.109715 -6.389467 1.016082 0.968721 -4.710843 -3.425009 -23.351896 3.948939 -7.055000 0.000000 -58.701000 -1.655198 1.862653 0.756262 0.226599 2.046490 -3.168596 0.289648 2.036173 -2.990046 -5.418689 -1.804244 -3.866833 -0.352615 -0.088720 1.028897 0.000000 0.000000 0.000000 -0.711710 2.307853 -2.074348 -81.684114 -6.043849 28.574165 179.893402 -69.240554 179.962490 4.155934 -0.197733 -0.025765 0.018369 0.547960 -0.000000 0.000000 0.000000 0.000000 0.000000 0.000000 0.000000 -16.126374 4.626099 2.542429 -7.392070 36.797848 -74.307458 -3.441714 19.170156 -0.283991 -35.368201 2.433187 -0.969399 0.767890 -0.548756 -0.000000 0.000000 0.000000 0.000000 0.000000 0.000000 0.000000 
4.631934 17.341579 1.043035 8.938310 -53.620825 7.450482 -9.897954 0.217011 3.885543 -8.123950 -12.425789 -18.365849 -2.619948 -1.175879 -2.634278 -0.311972 0.726985 10.029109 0.811400 -0.000000 -41.258200 10.563084 -0.771288 -3.438806 0.706165 -21.956681 -6.682825 1.022960 0.970750 -4.613342 -3.373133 -23.348982 3.913646 -7.107100 -0.000000 -58.643200 -1.588251 1.829265 0.734754 0.234667 2.008610 -3.197702 0.251625 2.000104 -3.067744 -5.173538 -1.647046 -3.777580 -0.365424 -0.091211 1.054857 0.000000 0.000000 0.000000 -0.774542 2.244445 -2.039745 -82.052288 -5.118210 27.753216 179.878162 -69.107252 179.962082 4.187796 -0.231240 -0.027204 0.021344 0.550751 0.000000 0.000000 0.000000 0.000000 0.000000 0.000000 0.000000 -16.036890 4.872541 2.462012 -6.161561 36.635218 -71.488125 -3.166190 21.667127 -0.261583 -31.064526 -0.491046 -0.001784 0.689678 -0.495546 -0.000000 0.000000 0.000000 0.000000 0.000000 0.000000 0.000000 
4.640101 17.343245 1.050590 8.930572 -53.807521 7.618155 -9.910155 0.210579 3.857024 -8.152759 -12.237316 -18.593841 -2.624987 -1.178534 -2.605533 -0.318238 0.653430 10.024897 0.790000 0.000000 -41.267500 10.546131 -0.751634 -3.396250 0.773547 -21.780899 -6.968868 1.028946 0.973291 -4.518113 -3.321512 -23.337450 3.876836 -7.154500 -0.000000 -58.587301 -1.541542 1.788396 0.721054 0.239891 1.965063 -3.222945 0.214192 1.957910 -3.133269 -4.868497 -1.460036 -3.656995 -0.386468 -0.094696 1.088520 0.000000 0.000000 0.000000 -0.814777 2.217313 -1.998387 -82.430068 -4.261637 26.971698 179.862884 -69.006727 179.961443 4.245419 -0.263302 -0.028839 0.023382 0.553388 -0.000000 0.000000 0.000000 0.000000 0.000000 0.000000 0.000000 -15.838400 5.107423 2.373061 -5.038473 36.501086 -68.810876 -2.892579 24.238592 -0.232767 -26.643614 -2.391661 0.465381 0.590116 -0.463566 -0.000000 0.000000 0.000000 0.000000 0.000000 0.000000 0.000000 
4.649121 17.344512 1.057898 8.915600 -54.025526 7.780603 -9.920496 0.204782 3.824309 -8.178561 -12.045565 -18.806925 -2.628086 -1.181270 -2.578163 -0.322151 0.607133 10.008215 0.776900 -0.000000 -41.280100 10.530614 -0.731682 -3.353959 0.837001 -21.588569 -7.245015 1.034641 0.975895 -4.426580 -3.270283 -23.312645 3.840684 -7.195200 -0.000000 -58.540400 -1.515671 1.743014 0.718318 0.242030 1.918813 -3.243651 0.177892 1.912585 -3.187444 -4.505664 -1.269197 -3.507920 -0.416383 -0.099159 1.129046 0.000000 0.000000 0.000000 -0.829767 2.228887 -1.949879 -82.813028 -3.494691 26.248647 179.847687 -68.949325 179.960536 4.332349 -0.292722 -0.030571 0.024329 0.555866 -0.000000 0.000000 0.000000 0.000000 0.000000 0.000000 0.000000 -15.522485 5.303730 2.264611 -4.006681 36.410947 -66.227213 -2.633866 26.920086 -0.201357 -22.438166 -3.304391 0.576403 0.482250 -0.453750 -0.000000 0.000000 0.000000 0.000000 0.000000 0.000000 0.000000 
4.658963 17.345347 1.064787 8.895375 -54.270383 7.937299 -9.929065 0.198763 3.787946 -8.199250 -11.857359 -19.002502 -2.629013 -1.184389 -2.555366 -0.323544 0.593110 9.981130 0.773799 0.000000 -41.294800 10.516440 -0.711772 -3.313658 0.896407 -21.385984 -7.510173 1.040634 0.978253 -4.339948 -3.219212 -23.270762 3.806049 -7.227499 -0.000000 -58.504400 -1.509896 1.696362 0.728315 0.240936 1.872997 -3.259668 0.142562 1.867334 -3.232006 -4.090654 -1.094194 -3.334329 -0.455471 -0.104542 1.175364 0.000000 0.000000 0.000000 -0.817289 2.276521 -1.894180 -83.194556 -2.831196 25.599894 179.832955 -68.943103 179.959353 4.449307 -0.318804 -0.032502 0.024105 0.558184 -0.000000 0.000000 0.000000 0.000000 0.000000 0.000000 0.000000 -15.087851 5.445160 2.129175 -3.034384 36.357888 -63.674379 -2.396316 29.757257 -0.171303 -18.721015 -3.359790 0.486267 0.378423 -0.463287 -0.000000 0.000000 0.000000 0.000000 0.000000 0.000000 0.000000 
4.669725 17.345774 1.071122 8.869722 -54.537331 8.088030 -9.936359 0.191549 3.748244 -8.212973 -11.677967 -19.178458 -2.627510 -1.187995 -2.539805 -0.322370 0.613815 9.946603 0.781600 0.000000 -41.309500 10.503099 -0.692101 -3.277248 0.952052 -21.179959 -7.764265 1.047604 0.979951 -4.258176 -3.168063 -23.208717 3.774302 -7.250301 0.000000 -58.483800 -1.521079 1.651529 0.752609 0.236854 1.830432 -3.271074 0.107548 1.825078 -3.269444 -3.632633 -0.947261 -3.141152 -0.503775 -0.110754 1.226202 0.000000 0.000000 0.000000 -0.776977 2.353210 -1.831673 -83.565295 -2.278307 25.038127 179.819158 -68.989931 179.957919 4.593721 -0.341329 -0.034531 0.022738 0.560360 0.000000 0.000000 0.000000 0.000000 0.000000 0.000000 0.000000 -14.540507 5.525860 1.964087 -2.089526 36.320792 -61.109230 -2.181071 32.790329 -0.145794 -15.677484 -2.737643 0.315062 0.287793 -0.487063 -0.000000 0.000000 0.000000 0.000000 0.000000 0.000000 0.000000 
4.681437 17.345831 1.076860 8.838883 -54.820910 8.233476 -9.942970 0.182424 3.705488 -8.218673 -11.510086 -19.334726 -2.623557 -1.192163 -2.533843 -0.318708 0.668287 9.908143 0.800000 0.000000 -41.322400 10.490045 -0.672760 -3.246142 1.004682 -20.976435 -8.008541 1.056110 0.980667 -4.180586 -3.116155 -23.125031 3.746787 -7.263800 0.000000 -58.480600 -1.545079 1.610685 0.791788 0.230306 1.792963 -3.278145 0.072360 1.787763 -3.302187 -3.143607 -0.833003 -2.933830 -0.560848 -0.117668 1.280184 0.000000 0.000000 0.000000 -0.710209 2.450423 -1.763031 -83.914355 -1.836837 24.571442 179.806849 -69.085387 179.956269 4.760405 -0.360465 -0.036660 0.020342 0.562424 -0.000000 0.000000 0.000000 0.000000 0.000000 0.000000 0.000000 -13.894090 5.548783 1.771124 -1.143186 36.274276 -58.517320 -1.985653 36.045243 -0.126792 -13.398497 -1.636680 0.133071 0.215383 -0.519078 -0.000000 0.000000 0.000000 0.000000 0.000000 0.000000 0.000000 
4.693948 17.345649 1.081959 8.804544 -55.116425 8.374729 -9.949506 0.171051 3.660033 -8.216063 -11.354637 -19.472675 -2.617336 -1.196913 -2.538709 -0.312680 0.752694 9.868705 0.827700 -0.000000 -41.331901 10.476729 -0.653736 -3.221329 1.055482 -20.780669 -8.245238 1.066669 0.980251 -4.105776 -3.062881 -23.018827 3.723775 -7.268500 -0.000000 -58.495200 -1.576810 1.574896 0.845454 0.221973 1.761274 -3.281250 0.036238 1.756169 -3.332081 -2.636001 -0.751168 -2.717924 -0.625908 -0.125131 1.335907 0.000000 0.000000 0.000000 -0.620154 2.558653 -1.689159 -84.229781 -1.501609 24.203156 179.796684 -69.221455 179.954486 4.941360 -0.376399 -0.038890 0.017118 0.564392 0.000000 0.000000 0.000000 0.000000 0.000000 0.000000 0.000000 -13.166586 5.521713 1.555937 -0.170910 36.196921 -55.908406 -1.805145 39.528441 -0.114951 -11.886536 -0.251286 -0.032017 0.162358 -0.553676 -0.000000 0.000000 0.000000 0.000000 0.000000 0.000000 0.000000 
4.707169 17.345282 1.086475 8.767136 -55.419556 8.513075 -9.956638 0.157329 3.612037 -8.205864 -11.209889 -19.594850 -2.609175 -1.202135 -2.555090 -0.304642 0.860676 9.831411 0.862500 0.000000 -41.336300 10.462557 -0.634870 -3.203429 1.105790 -20.596726 -8.476988 1.079612 0.978589 -4.031795 -3.007312 -22.891161 3.705963 -7.265800 0.000000 -58.528200 -1.610699 1.544095 0.912651 0.212570 1.734871 -3.280753 -0.002080 1.729903 -3.360429 -2.121870 -0.697666 -2.498639 -0.697769 -0.132979 1.392066 0.000000 0.000000 0.000000 -0.510269 2.669175 -1.611198 -84.500079 -1.263387 23.933232 179.789376 -69.386537 179.952656 5.126828 -0.390293 -0.041019 0.013307 0.566301 -0.000000 0.000000 0.000000 0.000000 0.000000 0.000000 0.000000 -12.380038 5.455723 1.326200 0.846686 36.074285 -53.310422 -1.634580 43.223068 -0.109991 -11.093466 1.224655 -0.177910 0.127565 -0.586043 -0.000000 0.000000 0.000000 0.000000 0.000000 0.000000 0.000000 
4.721047 17.344878 1.090481 8.726262 -55.727480 8.650150 -9.965038 0.141238 3.561334 -8.189320 -11.072473 -19.705134 -2.599406 -1.207548 -2.581588 -0.295098 0.984828 9.798030 0.902100 0.000001 -41.335601 10.446897 -0.615708 -3.192560 1.156676 -20.426469 -8.706898 1.095159 0.975807 -3.957468 -2.949160 -22.743217 3.692621 -7.256600 0.000000 -58.573900 -1.641308 1.517310 0.992260 0.202801 1.712367 -3.276767 -0.044045 1.707667 -3.387251 -1.613173 -0.670246 -2.281043 -0.774346 -0.140993 1.447377 0.000000 0.000000 0.000000 -0.384713 2.774941 -1.530562 -84.714850 -1.110035 23.756894 179.785550 -69.565829 179.950877 5.306472 -0.402543 -0.043151 0.009171 0.568153 -0.000000 0.000000 0.000000 0.000000 0.000000 0.000000 0.000000 -11.563320 5.359364 1.090292 1.934917 35.909135 -50.757989 -1.468717 47.091508 -0.110513 -10.882484 2.651929 -0.314114 0.107312 -0.613468 -0.000000 0.000000 0.000000 0.000000 0.000000 0.000000 0.000000 
4.735199 17.344494 1.094042 8.684382 -56.035978 8.788096 -9.974849 0.123458 3.508611 -8.167776 -10.938815 -19.807623 -2.588739 -1.213114 -2.617956 -0.284528 1.115806 9.770977 0.943500 -0.000000 -41.329300 10.429784 -0.596253 -3.188195 1.209747 -20.272090 -8.937941 1.113330 0.971954 -3.879741 -2.887337 -22.578078 3.683159 -7.243100 0.000001 -58.634200 -1.665794 1.492971 1.081597 0.192502 1.691916 -3.269783 -0.092619 1.687702 -3.412329 -1.113683 -0.660582 -2.067775 -0.855283 -0.149114 1.501189 0.000000 0.000000 0.000000 -0.241363 2.866580 -1.448978 -84.869274 -1.026615 23.666294 179.785445 -69.745088 179.949252 5.469314 -0.414714 -0.045186 0.005032 0.569986 0.000000 0.000000 0.000000 0.000000 0.000000 0.000000 0.000000 -10.729035 5.245369 0.859037 3.100597 35.696505 -48.269165 -1.303294 51.086812 -0.115037 -11.133692 3.862330 -0.442229 0.098619 -0.633650 -0.000000 0.000000 0.000000 0.000000 0.000000 0.000000 0.000000 
